<?xml version="1.0"?><svg width="520" height="520" xmlns="http://www.w3.org/2000/svg">
 <title>Magnifying glass</title>
 <g>
  <title>Layer 1</title>
  <g id="Vrstva_x0020_1" stroke-miterlimit="4" stroke="#000000" fill="#0F238C" clip-rule="nonzero" fill-rule="nonzero">
   <g id="g3470" clip-rule="evenodd" fill-rule="evenodd">
    <path stroke="#ffffff" d="m349.541962,289.416595c-5.591797,8.171875 -13.280273,17.080078 -22.191406,25.296875c-9.685547,8.931641 -20.244141,16.550781 -27.433594,20.463867l163.125977,150.447266l49.649323,-45.783203l-163.150299,-150.424805z" id="path3472" fill="#ffffff"/>
    <path stroke="#ffffff" d="m305.284149,77.694504c-65.175781,-60.077677 -169.791016,-60.077677 -234.966331,0c-65.150872,60.10051 -65.150872,156.570236 0,216.67131c65.175316,60.100586 169.79055,60.100586 234.966331,0c65.175781,-60.101074 65.175781,-156.570801 0,-216.67131zm-34.198242,31.535149c-46.204102,-42.606934 -120.390625,-42.606934 -166.570328,0c-46.20459,42.583427 -46.20459,110.994072 0,153.601006c46.179703,42.606445 120.366226,42.606445 166.570328,0c46.205078,-42.606934 46.205078,-111.017578 0,-153.601006z" id="path3474" fill="#ffffff"/>
   </g>
  </g>
  <rect transform="rotate(42.687469482421875 325.3906555175783,312.79214477539057) " id="svg_4" height="63.435743" width="68.333333" y="281.074276" x="291.223987" stroke-linecap="null" stroke-linejoin="null" stroke-dasharray="null" stroke-width="5" stroke="#ffffff" fill="#ffffff"/>
 </g>
</svg>